<svg id="SvgjsSvg1001" width="288" height="288" xmlns="http://www.w3.org/2000/svg" version="1.1" xmlns:xlink="http://www.w3.org/1999/xlink" xmlns:svgjs="http://svgjs.com/svgjs"><defs id="SvgjsDefs1002"></defs><g id="SvgjsG1008"><svg xmlns="http://www.w3.org/2000/svg" fill="none" viewBox="0 0 145 153" width="288" height="288"><g clip-path="url(#a)"><path fill="#aab0bc" d="M64.4103 151.224C25.0238 132.47 8.43279 96.5686 2.63965 67.3282H72.3973V153C69.6893 153 66.947 152.385 64.4446 151.19L64.4103 151.224ZM72.5002 0H72.603C73.9742 0 75.3796 0.307435 76.6479 0.888145L133.448 24.9022C140.098 27.7033 145.034 34.2277 145 42.0844C145 49.292 144.212 57.9685 142.361 67.3282H72.603V0H72.1917H72.5344H72.5002Z" class="color2C22FF svgShape"></path><path fill="#aab0bc" d="M142.361 67.3282H72.6028V153C75.3109 153 78.0532 152.385 80.5556 151.19C119.942 132.436 136.567 96.5345 142.361 67.294V67.3282ZM72.3972 0C71.026 0 69.6206 0.307435 68.3522 0.888145L11.552 24.9022C4.90189 27.6691 0 34.1936 0 42.0844C0 49.292 0.788416 57.9685 2.63948 67.3282H72.3972V0Z" opacity=".8" class="color2C22FF svgShape"></path></g><defs><clipPath id="a"><rect width="145" height="153" fill="#aab0bc" class="colorfff svgShape"></rect></clipPath></defs></svg></g></svg>