<svg id="SvgjsSvg1046" width="288" height="288" xmlns="http://www.w3.org/2000/svg" version="1.1" xmlns:xlink="http://www.w3.org/1999/xlink" xmlns:svgjs="http://svgjs.com/svgjs"><defs id="SvgjsDefs1047"></defs><g id="SvgjsG1048"><svg xmlns="http://www.w3.org/2000/svg" fill="none" viewBox="0 0 141 141" width="288" height="288"><g clip-path="url(#a)"><path fill="#21af27" d="M101.345 101.345C101.345 103.786 99.3729 105.758 96.9317 105.758C94.4904 105.758 92.5186 103.786 92.5186 101.345C92.5186 98.9034 94.4904 96.9316 96.9317 96.9316C99.3729 96.9316 101.345 98.9034 101.345 101.345ZM48.4815 101.345C48.4815 103.786 46.5097 105.758 44.0684 105.758C41.6271 105.758 39.6553 103.786 39.6553 101.345C39.6553 98.9034 41.6271 96.9316 44.0684 96.9316C46.5097 96.9316 48.4815 98.9034 48.4815 101.345ZM96.963 66.1025C94.5217 66.1025 92.5499 64.1307 92.5499 61.6894C92.5499 59.2481 94.5217 57.2763 96.963 57.2763C99.4042 57.2763 101.376 59.2481 101.376 61.6894C101.376 64.1307 99.4042 66.1025 96.963 66.1025ZM48.4815 39.6553C48.4815 42.0965 46.5097 44.0684 44.0684 44.0684C41.6271 44.0684 39.6553 42.0965 39.6553 39.6553C39.6553 37.214 41.6271 35.2422 44.0684 35.2422C46.5097 35.2422 48.4815 37.214 48.4815 39.6553ZM66.1026 74.8974V125.57H74.9288V105.727H84.4748C86.2901 110.859 91.204 114.553 96.963 114.553C104.256 114.553 110.171 108.637 110.171 101.345C110.171 94.0522 104.256 88.1367 96.963 88.1367C91.204 88.1367 86.2901 91.8299 84.4748 96.9629H74.9288V44.0684H88.1368C90.5467 44.0684 92.5499 46.0402 92.5499 48.4814V49.2326C87.4169 51.0479 83.7237 55.9618 83.7237 61.7207C83.7237 69.0133 89.6391 74.9287 96.9317 74.9287C104.224 74.9287 110.14 69.0133 110.14 61.7207C110.14 55.9618 106.446 51.0479 101.313 49.2326V48.4814C101.313 41.1889 95.398 35.2735 88.1055 35.2735H74.8975V15.4302H66.0713V35.2735H56.5252C54.7099 30.1405 49.796 26.4473 44.0371 26.4473C36.7445 26.4473 30.8291 32.3627 30.8291 39.6553C30.8291 46.9478 36.7445 52.8632 44.0371 52.8632C49.796 52.8632 54.7099 49.17 56.5252 44.0371H66.0713V66.0712H52.8633C45.5707 66.0712 39.6553 71.9867 39.6553 79.2792V88.8253C34.5223 90.6406 30.8291 95.5545 30.8291 101.313C30.8291 108.606 36.7445 114.521 44.0371 114.521C51.3297 114.521 57.2451 108.606 57.2451 101.313C57.2451 95.5545 53.5519 90.6406 48.4189 88.8253V79.2792C48.4189 76.8692 50.3907 74.8661 52.832 74.8661H66.04L66.1026 74.8974Z" class="color2C22FF svgShape"></path><path fill="#21af27" d="M74.8975 44.0687V96.9319H84.4436C86.2589 91.799 91.1727 88.1057 96.9317 88.1057C104.224 88.1057 110.14 94.0212 110.14 101.314C110.14 108.606 104.224 114.522 96.9317 114.522C91.1727 114.522 86.2589 110.828 84.4436 105.696H74.8975V125.539C74.8975 134.052 81.8145 140.969 90.3277 140.969C98.2775 140.969 104.85 134.928 105.664 127.166C107.104 127.542 108.606 127.73 110.14 127.73C119.874 127.73 127.761 119.811 127.761 110.109C127.761 108.074 127.416 106.102 126.759 104.256C135.085 101.126 140.969 93.0822 140.969 83.6613C140.969 74.8664 135.804 67.2609 128.355 63.7555C130.765 60.7508 132.143 56.9637 132.143 52.8323C132.143 44.3816 126.196 37.3395 118.277 35.5868C118.715 34.0844 118.935 32.4569 118.935 30.7981C118.935 22.5666 113.27 15.6183 105.633 13.7091C104.788 6.00962 98.2462 -0.0310059 90.2964 -0.0310059C81.7832 -0.0310059 74.8662 6.88598 74.8662 15.3992V35.2112H88.0742C95.3668 35.2112 101.282 41.1266 101.282 48.4192V49.1703C106.415 50.9856 110.108 55.8995 110.108 61.6585C110.108 68.951 104.193 74.8664 96.9004 74.8664C89.6078 74.8664 83.6924 68.951 83.6924 61.6585C83.6924 55.8995 87.3856 50.9856 92.5186 49.1703V48.4192C92.5186 46.0092 90.5468 44.0061 88.1055 44.0061H74.8975V44.0687ZM66.0713 15.4305C66.0713 6.91727 59.1543 0.0002927 50.6411 0.0002927C42.6913 0.0002927 36.1186 6.04091 35.3048 13.7404C27.668 15.6809 22.0029 22.5979 22.0029 30.8294C22.0029 32.4882 22.222 34.1157 22.6602 35.6181C14.7417 37.3395 8.79494 44.4129 8.79494 52.8636C8.79494 56.995 10.2034 60.7821 12.5821 63.7868C5.13301 67.3235 -0.03125 74.8977 -0.03125 83.6926C-0.03125 93.1135 5.85288 101.157 14.1783 104.287C13.5523 106.102 13.1767 108.074 13.1767 110.14C13.1767 119.874 21.0953 127.761 30.7978 127.761C32.3315 127.761 33.8651 127.573 35.2735 127.198C36.0873 134.96 42.66 141 50.6098 141C59.123 141 66.04 134.083 66.04 125.57V74.8977H52.832C50.422 74.8977 48.4189 76.8696 48.4189 79.3108V88.8569C53.5519 90.6722 57.2451 95.5861 57.2451 101.345C57.2451 108.638 51.3297 114.553 44.0371 114.553C36.7446 114.553 30.8291 108.638 30.8291 101.345C30.8291 95.5861 34.5224 90.6722 39.6553 88.8569V79.3108C39.6553 72.0183 45.5707 66.1029 52.8633 66.1029H66.0713V44.0687H56.5252C54.7099 49.2016 49.7961 52.8949 44.0371 52.8949C36.7446 52.8949 30.8291 46.9794 30.8291 39.6869C30.8291 32.3943 36.7446 26.4789 44.0371 26.4789C49.7961 26.4789 54.7099 30.1721 56.5252 35.3051H66.0713V15.4931V15.4305Z" opacity=".4" class="color2C22FF svgShape"></path></g><defs><clipPath id="a"><rect width="141" height="141" fill="#ffffff" class="colorfff svgShape"></rect></clipPath></defs></svg></g></svg>