<svg id="SvgjsSvg1036" width="288" height="288" xmlns="http://www.w3.org/2000/svg" version="1.1" xmlns:xlink="http://www.w3.org/1999/xlink" xmlns:svgjs="http://svgjs.com/svgjs"><defs id="SvgjsDefs1037"></defs><g id="SvgjsG1038"><svg xmlns="http://www.w3.org/2000/svg" fill="none" viewBox="0 0 167 134" width="288" height="288"><g clip-path="url(#a)"><path fill="#21af27" d="M68.1825 92.1195C48.9646 92.1195 33.3945 107.735 33.3945 127.01C33.3945 130.847 36.5085 134 40.364 134H126.637C130.463 134 133.606 130.877 133.606 127.01C133.606 107.735 118.036 92.1195 98.8184 92.1195H68.1825ZM83.4856 83.7315C97.3059 83.7315 108.546 72.488 108.546 58.5972C108.546 44.7064 97.3356 33.4629 83.4856 33.4629C69.6357 33.4629 58.4253 44.7064 58.4253 58.5972C58.4253 72.488 69.6357 83.7315 83.4856 83.7315Z" class="color2C22FF svgShape"></path><path fill="#21af27" d="M105.609 83.7612H161.454C164.538 83.7612 167 81.2626 167 78.1989C167 62.7911 154.514 50.2686 139.152 50.2686H128.03C123.878 50.2686 119.934 51.1907 116.405 52.7969C116.731 54.6708 116.909 56.634 116.909 58.6269C116.909 68.6211 112.52 77.604 105.609 83.7612ZM27.8482 50.2686C12.4857 50.2686 0 62.7911 0 78.1989C0 81.2626 2.49121 83.7612 5.54591 83.7612H61.4202C54.4804 77.604 50.1208 68.6211 50.1208 58.6269C50.1208 56.634 50.2987 54.7006 50.6249 52.7969C47.0661 51.1609 43.1216 50.2686 38.9993 50.2686H27.8482ZM154.485 20.9403C154.485 9.36959 145.143 0 133.606 0C122.069 0 112.727 9.36959 112.727 20.9403C112.727 32.511 122.069 41.8806 133.606 41.8806C145.143 41.8806 154.485 32.511 154.485 20.9403ZM58.4544 20.9403C58.4544 9.36959 49.1124 0 37.5757 0C26.0391 0 16.697 9.36959 16.697 20.9403C16.697 32.511 26.0391 41.8806 37.5757 41.8806C49.1124 41.8806 58.4544 32.511 58.4544 20.9403Z" opacity=".8" class="color2C22FF svgShape"></path></g><defs><clipPath id="a"><rect width="167" height="134" fill="#21af27" class="colorfff svgShape"></rect></clipPath></defs></svg></g></svg>